PathFileType	4	(x/y/z)	TRC_MarkerData\Passive\Passive_Pref0004.trc
DataRate	CameraRate	NumFrames	NumMarkers	Units	OrigDataRate	OrigDataStartFrame	OrigNumFrames
240	240	11	49	mm	240	65	259
Frame#	Time	R_AC			L_AC			HEAD			STERN			L_IC			R_IC			L_ASIS			R_ASIS			L_GT			R_GT			L_PSIS			R_PSIS			SACRAL			L_LAT_KNEE			L_MED_KNEE			R_LAT_KNEE			R_MED_KNEE			L_LAT_ANK			L_MED_ANK			R_LAT_ANK			R_MED_ANK			L_THIGH_PROX_POST			L_THIGH_PROX_ANT			L_THIGH_DIST_ANT			L_THIGH_DIST_POST			R_THIGH_PROX_POST			R_THIGH_PROX_ANT			R_THIGH_DIST_ANT			R_THIGH_DIST_POST			L_SHANK_PROX_POST			L_SHANK_PROX_ANT			L_SHANK_DIST_ANT			L_SHANK_DIST_POST			R_SHANK_PROX_POST			R_SHANK_PROX_ANT			R_SHANK_DIST_ANT			R_SHANK_DIST_POST			L_HEEL_LAT			L_HEEL_SUP			L_HEEL_MED			R_HEEL_LAT			R_HEEL_SUP			R_HEEL_MED			L_1ST_MET			L_5TH_MET			L_TOE			R_1ST_MET			R_5TH_MET			R_TOE			
		X1	Y1	Z1	X2	Y2	Z2	X3	Y3	Z3	X4	Y4	Z4	X5	Y5	Z5	X6	Y6	Z6	X7	Y7	Z7	X8	Y8	Z8	X9	Y9	Z9	X10	Y10	Z10	X11	Y11	Z11	X12	Y12	Z12	X13	Y13	Z13	X14	Y14	Z14	X15	Y15	Z15	X16	Y16	Z16	X17	Y17	Z17	X18	Y18	Z18	X19	Y19	Z19	X20	Y20	Z20	X21	Y21	Z21	X22	Y22	Z22	X23	Y23	Z23	X24	Y24	Z24	X25	Y25	Z25	X26	Y26	Z26	X27	Y27	Z27	X28	Y28	Z28	X29	Y29	Z29	X30	Y30	Z30	X31	Y31	Z31	X32	Y32	Z32	X33	Y33	Z33	X34	Y34	Z34	X35	Y35	Z35	X36	Y36	Z36	X37	Y37	Z37	X38	Y38	Z38	X39	Y39	Z39	X40	Y40	Z40	X41	Y41	Z41	X42	Y42	Z42	X43	Y43	Z43	X44	Y44	Z44	X45	Y45	Z45	X46	Y46	Z46	X47	Y47	Z47	X48	Y48	Z48	X49	Y49	Z49	

65	0.2677	-430.98	1502	423.53	-400.52	1514	72.65	-440.56	1794.8	242.8	-376.34	1450.4	253.03	-435.48	1081.9	93.126	-456.37	1099.2	421.52	-372.73	1009.3	124.93	-379.62	1009.7	400.06	-442.26	921.09	66.47	-454.51	932.44	453.57	-562.85	1062.1	202.89	-565.69	1068.6	294.56	-576.43	1032.4	248.56	-364.73	525.88	124.99	-399.43	527.47	257.62	-386.91	527.79	426.88	-371.05	532.55	291.4	-448.83	114.2	154.29	-448.68	115.86	226.92	-700.93	249.68	412.38	-671.54	254.36	324.32	-424.66	748.99	95.071	-363.01	757.73	113.79	-348.07	686.22	128.73	-411.56	675.46	110.12	-451.59	714.95	430.06	-387.75	735.36	443.3	-371.56	662.12	438.44	-434.38	642.61	421.66	-393	443.34	128.74	-349.6	448.98	155.42	-368.59	392.72	161.44	-426.09	389.97	150.7	-534.6	459.95	422.74	-486.06	412.65	435.38	-542.46	360.93	426.39	-589.72	411.06	412.11	-539.26	50.203	161	-545.37	79.099	193.33	-537.65	49.333	227.5	-793.3	263.95	377.93	-769.16	283.65	347.06	-776.95	259.86	311.63	-328.93	53.009	241.79	-360.52	37.466	136.44	-268.74	56.792	208.91	-651.88	98.264	329.71	-695.56	110.53	430.77	-624.66	56.991	383.43
66	0.27188	-425.87	1503	423.45	-394.52	1515.2	72.57	-434.57	1796	242.81	-370.67	1451.6	253	-429.9	1082.7	92.89	-450.81	1100.7	421.2	-367.18	1010	124.83	-373.9	1011.3	399.92	-437.38	921.7	66.468	-448.09	934.15	453.61	-557.14	1063.1	202.59	-560.03	1069.9	294.27	-570.84	1033.5	248.36	-362.8	525.9	124.8	-397.35	527.66	257.42	-375.7	529.99	426.63	-359.87	535.1	291.17	-448.43	114.54	154.27	-448.35	116.18	226.74	-686.29	247.89	411.86	-656.77	253	323.87	-421	749.59	94.995	-359.25	757.88	113.65	-344.82	686.25	128.54	-408.47	675.95	110.05	-442.69	716.42	430.18	-379.1	737.6	443.4	-362.02	664.55	438.51	-424.62	644.32	421.71	-391.38	443.47	128.58	-347.96	448.96	155.26	-367.15	392.77	161.29	-424.66	390.24	150.56	-522.7	460.47	422.52	-473.51	413.7	435.05	-529.26	361.3	426.09	-577.18	410.84	411.81	-539.07	50.79	161	-545.17	79.726	193.27	-537.56	49.974	227.47	-779.12	259.38	377.43	-755.6	279.66	346.55	-762.63	255.41	311.23	-328.82	52.996	241.78	-360.44	37.468	136.42	-268.62	56.611	208.9	-632.72	97.773	330.06	-676.87	109.19	431.05	-604.36	57.585	383.97
67	0.27607	-420.74	1504	423.37	-388.52	1516.5	72.493	-428.58	1797.1	242.83	-364.99	1452.8	252.96	-424.34	1083.5	92.666	-445.22	1102.1	420.89	-361.65	1010.6	124.74	-368.18	1012.9	399.77	-432.52	922.31	66.48	-441.67	935.87	453.67	-551.43	1064.1	202.32	-554.38	1071.1	294.01	-565.25	1034.7	248.19	-360.89	525.94	124.61	-395.29	527.86	257.22	-364.61	532.23	426.35	-348.83	537.68	290.91	-448.02	114.9	154.25	-448.03	116.53	226.56	-671.51	245.91	411.33	-641.87	251.45	323.42	-417.36	750.2	94.927	-355.51	758.05	113.51	-341.59	686.29	128.36	-405.39	676.45	109.99	-433.87	717.92	430.28	-370.56	739.85	443.5	-352.61	667	438.57	-414.97	646.06	421.75	-389.76	443.61	128.43	-346.33	448.95	155.1	-365.73	392.83	161.15	-423.24	390.52	150.42	-510.88	460.9	422.29	-461	414.71	434.7	-516.06	361.6	425.78	-564.67	410.5	411.5	-538.88	51.406	161	-544.97	80.388	193.22	-537.47	50.648	227.44	-764.73	254.55	376.92	-741.85	275.42	346.03	-748.09	250.72	310.83	-328.71	52.988	241.76	-360.35	37.475	136.39	-268.5	56.432	208.88	-613.41	97.223	330.44	-658.02	107.79	431.36	-583.93	58.17	384.55
68	0.28025	-415.59	1505	423.29	-382.53	1517.7	72.419	-422.6	1798.2	242.87	-359.31	1454	252.91	-418.8	1084.3	92.455	-439.62	1103.6	420.59	-356.16	1011.3	124.64	-362.45	1014.5	399.63	-427.7	922.92	66.506	-435.26	937.59	453.74	-545.72	1065.1	202.08	-548.74	1072.3	293.79	-559.67	1035.9	248.06	-358.98	526	124.43	-393.24	528.07	257.02	-353.66	534.49	426.03	-337.95	540.3	290.64	-447.61	115.28	154.23	-447.71	116.9	226.38	-656.59	243.75	410.79	-626.84	249.71	322.96	-413.72	750.81	94.872	-351.79	758.22	113.37	-338.37	686.35	128.19	-402.31	676.96	109.94	-425.15	719.44	430.36	-362.13	742.1	443.59	-343.33	669.46	438.61	-405.43	647.83	421.77	-388.16	443.77	128.28	-344.71	448.96	154.95	-364.3	392.92	161.01	-421.82	390.82	150.28	-499.13	461.24	422.03	-448.53	415.67	434.32	-502.84	361.82	425.45	-552.18	410.04	411.17	-538.67	52.049	161	-544.76	81.087	193.16	-537.36	51.351	227.41	-750.13	249.49	376.4	-727.9	270.93	345.52	-733.34	245.79	310.43	-328.6	52.984	241.74	-360.25	37.487	136.37	-268.37	56.255	208.86	-593.96	96.617	330.85	-639.02	106.33	431.7	-563.39	58.751	385.17
69	0.28443	-410.42	1506	423.2	-376.54	1518.9	72.348	-416.63	1799.4	242.93	-353.61	1455.2	252.86	-413.28	1085.1	92.257	-434	1105	420.29	-350.71	1011.9	124.54	-356.7	1016.1	399.47	-422.9	923.52	66.546	-428.87	939.31	453.81	-540.01	1066.1	201.88	-543.11	1073.5	293.61	-554.09	1037	247.97	-357.09	526.07	124.26	-391.2	528.29	256.83	-342.86	536.77	425.68	-327.24	542.93	290.35	-447.19	115.68	154.21	-447.38	117.28	226.2	-641.53	241.4	410.26	-611.68	247.8	322.5	-410.1	751.42	94.831	-348.08	758.4	113.25	-335.17	686.42	128.04	-399.23	677.49	109.91	-416.52	720.97	430.43	-353.82	744.36	443.68	-334.16	671.92	438.63	-396.01	649.62	421.77	-386.55	443.95	128.14	-343.09	448.99	154.81	-362.88	393.02	160.88	-420.41	391.14	150.16	-487.45	461.47	421.75	-436.12	416.57	433.93	-489.63	361.95	425.11	-539.73	409.44	410.84	-538.44	52.72	161	-544.53	81.819	193.11	-537.23	52.081	227.38	-735.31	244.21	375.88	-713.76	266.21	344.99	-718.34	240.64	310.04	-328.48	52.985	241.71	-360.16	37.505	136.34	-268.24	56.078	208.84	-574.37	95.962	331.3	-619.89	104.83	432.07	-542.76	59.332	385.84
70	0.28861	-405.23	1506.9	423.1	-370.56	1520.1	72.28	-410.65	1800.4	242.99	-347.92	1456.3	252.79	-407.78	1085.9	92.071	-428.36	1106.5	420.01	-345.28	1012.5	124.44	-350.94	1017.6	399.31	-418.13	924.11	66.6	-422.48	941.02	453.89	-534.3	1067.1	201.72	-537.49	1074.8	293.45	-548.52	1038.1	247.92	-355.19	526.15	124.11	-389.17	528.52	256.66	-332.19	539.06	425.29	-316.7	545.57	290.04	-446.76	116.09	154.19	-447.05	117.69	226.03	-626.32	238.88	409.72	-596.39	245.7	322.05	-406.49	752.04	94.808	-344.39	758.59	113.14	-331.99	686.51	127.9	-396.15	678.02	109.89	-407.99	722.51	430.47	-345.62	746.6	443.76	-325.11	674.38	438.63	-386.69	651.43	421.75	-384.95	444.15	128.01	-341.47	449.03	154.69	-361.45	393.14	160.77	-418.99	391.46	150.04	-475.85	461.6	421.45	-423.76	417.41	433.52	-476.41	361.99	424.76	-527.31	408.71	410.49	-538.21	53.416	161	-544.3	82.583	193.06	-537.09	52.835	227.36	-720.26	238.71	375.36	-699.42	261.27	344.45	-703.11	235.27	309.64	-328.36	52.99	241.69	-360.05	37.53	136.31	-268.11	55.902	208.81	-554.65	95.262	331.79	-600.63	103.28	432.47	-522.05	59.917	386.54
71	0.2928	-400.01	1507.9	423	-364.59	1521.4	72.213	-404.68	1801.5	243.07	-342.21	1457.5	252.72	-402.3	1086.6	91.9	-422.69	1107.9	419.73	-339.88	1013.1	124.32	-345.17	1019.2	399.14	-413.39	924.7	66.668	-416.1	942.72	453.97	-528.6	1068	201.59	-531.86	1076	293.33	-542.96	1039.3	247.9	-353.3	526.25	123.98	-387.16	528.76	256.52	-321.69	541.34	424.88	-306.33	548.22	289.72	-446.33	116.52	154.18	-446.72	118.11	225.88	-610.97	236.19	409.19	-580.97	243.43	321.6	-402.89	752.65	94.805	-340.7	758.77	113.04	-328.82	686.6	127.78	-393.07	678.56	109.88	-399.54	724.06	430.51	-337.52	748.83	443.84	-316.18	676.81	438.61	-377.5	653.23	421.72	-383.34	444.35	127.91	-339.85	449.08	154.58	-360.01	393.27	160.67	-417.57	391.8	149.95	-464.31	461.6	421.13	-411.45	418.19	433.1	-463.2	361.94	424.4	-514.91	407.84	410.14	-537.96	54.136	161	-544.07	83.376	193.01	-536.92	53.608	227.34	-704.99	233.01	374.83	-684.87	256.12	343.9	-687.63	229.7	309.23	-328.23	53	241.66	-359.95	37.56	136.28	-267.97	55.725	208.79	-534.82	94.522	332.31	-581.25	101.71	432.9	-501.27	60.512	387.29
72	0.29698	-394.77	1508.9	422.9	-358.62	1522.5	72.149	-398.71	1802.5	243.16	-336.5	1458.7	252.64	-396.84	1087.4	91.743	-417	1109.3	419.47	-334.51	1013.7	124.2	-339.38	1020.7	398.97	-408.66	925.27	66.749	-409.72	944.4	454.06	-522.91	1068.9	201.49	-526.24	1077.1	293.24	-537.39	1040.4	247.92	-351.4	526.35	123.88	-385.16	529	256.4	-311.33	543.61	424.43	-296.16	550.85	289.39	-445.88	116.97	154.18	-446.37	118.56	225.74	-595.47	233.34	408.66	-565.42	241	321.15	-399.31	753.25	94.825	-337.02	758.95	112.96	-325.65	686.69	127.68	-389.98	679.1	109.89	-391.18	725.59	430.52	-329.52	751.03	443.9	-307.36	679.22	438.56	-368.43	655.04	421.66	-381.73	444.58	127.83	-338.22	449.14	154.5	-358.57	393.42	160.6	-416.14	392.16	149.88	-452.84	461.47	420.78	-399.21	418.9	432.66	-449.98	361.8	424.02	-502.53	406.82	409.77	-537.7	54.878	161.01	-543.82	84.197	192.97	-536.72	54.398	227.32	-689.48	227.13	374.3	-670.11	250.76	343.34	-671.9	223.94	308.83	-328.1	53.014	241.62	-359.84	37.596	136.25	-267.83	55.549	208.76	-514.88	93.751	332.87	-561.76	100.11	433.35	-480.43	61.123	388.09
73	0.30116	-389.49	1509.8	422.79	-352.65	1523.7	72.087	-392.75	1803.5	243.25	-330.77	1459.8	252.54	-391.4	1088.1	91.601	-411.29	1110.7	419.21	-329.17	1014.2	124.08	-333.57	1022.1	398.79	-403.95	925.83	66.845	-403.35	946.06	454.16	-517.23	1069.8	201.43	-520.62	1078.3	293.18	-531.82	1041.5	247.97	-349.5	526.47	123.81	-383.18	529.25	256.31	-301.15	545.86	423.95	-286.16	553.46	289.05	-445.44	117.43	154.18	-446.01	119.01	225.62	-579.82	230.33	408.13	-549.75	238.4	320.71	-395.73	753.85	94.87	-333.34	759.13	112.9	-322.5	686.79	127.61	-386.88	679.65	109.92	-382.92	727.12	430.52	-321.61	753.19	443.95	-298.67	681.6	438.49	-359.48	656.83	421.59	-380.12	444.81	127.77	-336.59	449.22	154.45	-357.12	393.58	160.55	-414.71	392.52	149.84	-441.43	461.21	420.39	-387.03	419.54	432.2	-436.77	361.57	423.62	-490.18	405.67	409.39	-537.43	55.64	161.02	-543.56	85.04	192.93	-536.48	55.201	227.32	-673.73	221.07	373.77	-655.14	245.21	342.76	-655.92	218	308.43	-327.96	53.033	241.59	-359.73	37.638	136.23	-267.69	55.372	208.73	-494.85	92.954	333.46	-542.16	98.497	433.83	-459.53	61.756	388.92
74	0.30535	-384.19	1510.8	422.67	-346.69	1524.8	72.027	-386.79	1804.5	243.36	-325.04	1460.9	252.44	-385.97	1088.8	91.475	-405.56	1112	418.95	-323.86	1014.8	123.94	-327.75	1023.6	398.6	-399.25	926.36	66.954	-397	947.69	454.26	-511.56	1070.7	201.4	-515	1079.5	293.15	-526.26	1042.5	248.05	-347.59	526.6	123.77	-381.21	529.51	256.26	-291.12	548.07	423.44	-276.36	556.04	288.71	-444.98	117.9	154.19	-445.64	119.48	225.52	-564.03	227.17	407.62	-533.95	235.66	320.28	-392.17	754.42	94.943	-329.67	759.31	112.86	-319.36	686.88	127.56	-383.77	680.2	109.97	-374.74	728.64	430.5	-313.8	755.31	443.98	-290.08	683.93	438.39	-350.65	658.61	421.51	-378.5	445.06	127.75	-334.95	449.3	154.43	-355.66	393.75	160.53	-413.28	392.89	149.82	-430.1	460.82	419.98	-374.91	420.1	431.73	-423.57	361.25	423.22	-477.85	404.37	408.99	-537.15	56.421	161.04	-543.3	85.903	192.91	-536.22	56.013	227.33	-657.73	214.85	373.24	-639.92	239.48	342.18	-639.68	211.9	308.03	-327.81	53.057	241.56	-359.61	37.687	136.2	-267.54	55.196	208.7	-474.72	92.141	334.09	-522.46	96.879	434.34	-438.6	62.42	389.79
75	0.30953	-378.85	1511.7	422.55	-340.72	1526	71.968	-380.83	1805.5	243.47	-319.3	1462	252.32	-380.56	1089.5	91.364	-399.8	1113.3	418.71	-318.56	1015.3	123.8	-321.92	1025	398.4	-394.57	926.88	67.077	-390.65	949.29	454.36	-505.9	1071.6	201.4	-509.38	1080.6	293.15	-520.69	1043.6	248.16	-345.67	526.74	123.77	-379.25	529.76	256.26	-281.27	550.25	422.91	-266.75	558.57	288.35	-444.53	118.38	154.21	-445.25	119.96	225.44	-548.08	223.88	407.11	-518.03	232.77	319.86	-388.62	754.98	95.044	-326.01	759.47	112.84	-316.22	686.97	127.55	-380.66	680.75	110.04	-366.65	730.14	430.47	-306.07	757.38	443.99	-281.61	686.22	438.26	-341.95	660.36	421.41	-376.87	445.31	127.76	-333.29	449.39	154.44	-354.19	393.92	160.55	-411.83	393.27	149.83	-418.83	460.28	419.53	-362.87	420.58	431.25	-410.38	360.83	422.8	-465.53	402.92	408.57	-536.85	57.22	161.07	-543.02	86.782	192.89	-535.92	56.831	227.35	-641.49	208.5	372.71	-624.47	233.57	341.59	-623.18	205.65	307.63	-327.65	53.087	241.52	-359.49	37.741	136.18	-267.39	55.018	208.67	-454.51	91.321	334.75	-502.66	95.265	434.86	-417.62	63.124	390.7
